<?xml version="1.0" encoding="UTF-8"?>
<svg width="640px" height="360px" viewBox="0 0 640 360" version="1.1" xmlns="http://www.w3.org/2000/svg" xmlns:xlink="http://www.w3.org/1999/xlink">
    <title>wallet-provider-lit</title>
    <g id="Page-1" stroke="none" stroke-width="1" fill="none" fill-rule="evenodd">
        <g id="Desktop-HD" transform="translate(-34.000000, -834.000000)">
            <g id="wallet-provider-lit" transform="translate(34.000000, 834.000000)">
                <rect id="Rectangle-Copy-2" fill="#B5DDEF" x="0" y="0" width="640" height="360"></rect>
                <circle id="Oval" fill="#755A5A" cx="197.5" cy="176.5" r="96.5"></circle>
                <text id="Wallet-Provider-Logo" font-family="Helvetica" font-size="24" font-weight="normal" fill="#000000">
                    <tspan x="119" y="176">Wallet-Provider</tspan>
                    <tspan x="119" y="205">Logo</tspan>
                </text>
                <polyline id="Path" fill="#00E8FF" fill-rule="nonzero" points="453 196.285714 471.363636 141 554 223.928571 526.454545 270 489.727273 233.142857 471.363636 233.142857"></polyline>
                <path d="M490,233.25 L490,159.75 L527,123 L527,196.5 M416,233.25 L453,270 L471.5,233.25 L453,196.5 L434.5,196.5" id="Shape" fill="#283198" fill-rule="nonzero"></path>
                <path d="M452.75,196.4 L452.75,122.8 L489.5,86 L489.5,159.6 M526.25,270 L526.25,196.4 L563,159.6 L563,233.2 M416,233.2 L416,159.6 L452.75,196.4" id="Shape" fill="#324FFF" fill-rule="nonzero"></path>
                <polyline id="Path" fill="#00FFFF" fill-rule="nonzero" points="452 270 452 197 489 233.5"></polyline>
            </g>
        </g>
    </g>
</svg>