<?xml version="1.0" encoding="UTF-8"?>
<svg width="640px" height="360px" viewBox="0 0 640 360" version="1.1" xmlns="http://www.w3.org/2000/svg" xmlns:xlink="http://www.w3.org/1999/xlink">
    <title>wallet-provider-next</title>
    <g id="Page-1" stroke="none" stroke-width="1" fill="none" fill-rule="evenodd">
        <g id="Desktop-HD" transform="translate(-714.000000, -834.000000)">
            <g id="wallet-provider-next" transform="translate(714.000000, 834.000000)">
                <rect id="Rectangle-Copy-5" fill="#B5DDEF" x="-1.13686838e-13" y="0" width="640" height="360"></rect>
                <path d="M246,169.210839 C246,182.734176 259.20004,195.35876 280.010993,202.474662 C275.85524,223.404498 279.266209,240.273803 290.659218,246.847072 C302.370051,253.603061 319.816305,248.926504 336.375169,234.446356 C352.516258,248.341953 368.829707,253.810565 380.212099,247.218616 C391.911482,240.443014 395.470182,222.429555 391.199498,200.846435 C412.875207,193.677075 425,182.912186 425,169.210839 C425,156.001028 411.775468,144.572762 391.245208,137.50233 C395.842764,115.027216 391.947121,98.5672581 380.082511,91.7225319 C368.643784,85.1237919 352.140961,90.8752665 335.762485,105.134781 C318.723465,89.9994333 302.383475,85.3784217 290.530367,92.2430976 C279.102757,98.8606077 275.841787,116.036475 280.010993,137.353789 C259.902748,144.367488 246,156.053856 246,169.210839 Z" id="Path" fill="#FFFFFF" fill-rule="nonzero"></path>
                <path d="M386.729912,144.700736 C385.080484,144.134868 383.371339,143.599465 381.611534,143.093118 C381.900779,141.916529 382.166249,140.755173 382.402286,139.613563 C386.276801,120.867977 383.743508,105.766402 375.093067,100.79432 C366.798379,96.026753 353.233051,100.997706 339.532722,112.881504 C338.215274,114.024242 336.894146,115.234117 335.573585,116.502102 C334.693682,115.663173 333.815195,114.852452 332.938972,114.076993 C318.580627,101.370062 304.188602,96.0151873 295.546652,101.001655 C287.259889,105.783045 284.805841,119.979964 288.29347,137.745295 C288.630261,139.461236 289.023939,141.213566 289.469126,142.995233 C287.432247,143.571539 285.465839,144.185926 283.584336,144.839524 C266.750716,150.68918 256,159.857036 256,169.366501 C256,179.187956 267.540902,189.039029 285.074425,195.01224 C286.458099,195.483609 287.893849,195.929308 289.373466,196.352439 C288.893185,198.279382 288.475451,200.167678 288.124791,202.00943 C284.799332,219.466439 287.396303,233.327956 295.660991,238.079162 C304.197659,242.985799 318.524589,237.94235 332.475388,225.787747 C333.578026,224.826955 334.684626,223.808054 335.793206,222.74007 C337.230089,224.119197 338.664705,225.424418 340.091682,226.648679 C353.604653,238.238824 366.950926,242.918945 375.207972,238.15448 C383.736149,233.233738 386.507744,218.343165 382.909454,200.226353 C382.634643,198.842711 382.314833,197.429169 381.955684,195.990521 C382.961812,195.694046 383.949545,195.387981 384.912655,195.069786 C403.14042,189.050313 415,179.319126 415,169.366501 C415,159.822622 403.902586,150.592988 386.729912,144.700736 L386.729912,144.700736 L386.729912,144.700736 Z" id="Path" fill="#53C1DE" fill-rule="nonzero"></path>
                <path d="M382.641516,189.221311 C381.774569,189.509344 380.885045,189.787749 379.978589,190.057657 C377.972081,183.682677 375.264,176.903827 371.950016,169.900102 C375.112454,163.063192 377.715834,156.371007 379.666183,150.037378 C381.28804,150.508371 382.862204,151.005138 384.37908,151.529376 C399.050577,156.598149 408,164.09241 408,169.866965 C408,176.017918 398.334895,184.002715 382.641516,189.221311 L382.641516,189.221311 L382.641516,189.221311 Z M376.129818,202.170655 C377.716399,210.213796 377.943013,217.48573 376.892065,223.170504 C375.947793,228.278645 374.048806,231.684354 371.700825,233.048338 C366.704308,235.950768 356.0193,232.178005 344.495846,222.226252 C343.174824,221.085445 341.844207,219.86732 340.509356,218.578106 C344.97673,213.674733 349.441564,207.974382 353.799159,201.643584 C361.463681,200.961027 368.704891,199.845143 375.27162,198.321708 C375.595032,199.631029 375.882321,200.915145 376.129818,202.170655 L376.129818,202.170655 L376.129818,202.170655 Z M310.279093,232.546757 C305.397436,234.276943 301.509438,234.326506 299.159199,232.966487 C294.158168,230.071705 292.079132,218.897577 294.915053,203.908488 C295.239876,202.191897 295.626503,200.428575 296.072111,198.626168 C302.566877,200.06747 309.755031,201.104618 317.437897,201.729683 C321.824841,207.924536 326.418645,213.618656 331.048007,218.604445 C330.036569,219.584383 329.029081,220.517307 328.027238,221.396419 C321.875921,226.792594 315.711623,230.62115 310.279093,232.546757 L310.279093,232.546757 L310.279093,232.546757 Z M287.409132,189.183642 C279.678289,186.531862 273.293868,183.085368 268.917647,179.324502 C264.985343,175.944848 263,172.589551 263,169.866965 C263,164.073151 271.607102,156.683115 285.962244,151.660223 C287.70404,151.050736 289.527395,150.476367 291.419608,149.936835 C293.40354,156.41349 296.006074,163.184976 299.146782,170.032365 C295.965436,176.981429 293.325932,183.860823 291.322528,190.413379 C289.973568,190.024236 288.666656,189.614702 287.409132,189.183642 L287.409132,189.183642 L287.409132,189.183642 Z M295.075348,136.813593 C292.095782,121.531656 294.074634,110.003504 299.054217,107.110704 C304.358342,104.028997 316.087243,108.422858 328.449141,119.438666 C329.239327,120.142749 330.032617,120.879685 330.828166,121.642111 C326.221663,126.606093 321.669909,132.257447 317.32191,138.415764 C309.865374,139.109368 302.727736,140.223552 296.16524,141.71555 C295.75265,140.049938 295.387189,138.413498 295.075348,136.813593 L295.075348,136.813593 L295.075348,136.813593 Z M363.464828,153.761143 C361.896027,151.041673 360.285457,148.386493 358.643564,145.803818 C363.702166,146.445593 368.548828,147.297516 373.100301,148.340046 C371.733843,152.73504 370.03071,157.33027 368.025895,162.041054 C366.587757,159.300909 365.066648,156.538106 363.464828,153.761143 L363.464828,153.761143 L363.464828,153.761143 Z M335.575773,126.499886 C338.69983,129.896533 341.828403,133.688837 344.905614,137.803444 C341.804697,137.656453 338.6654,137.579984 335.500141,137.579984 C332.364795,137.579984 329.24864,137.654754 326.166914,137.799196 C329.247229,133.722823 332.402894,129.935617 335.575773,126.499886 L335.575773,126.499886 L335.575773,126.499886 Z M307.50808,153.808157 C305.940972,156.535274 304.448084,159.283066 303.032522,162.035956 C301.060161,157.341599 299.372832,152.72541 297.994521,148.268108 C302.518055,147.252201 307.341859,146.421519 312.368289,145.791923 C310.703254,148.398389 309.079421,151.07311 307.50808,153.807591 L307.50808,153.808157 L307.50808,153.808157 Z M312.513062,194.426878 C307.319846,193.845429 302.423514,193.057514 297.90111,192.069645 C299.301433,187.532758 301.026014,182.81801 303.040142,178.022543 C304.459373,180.77345 305.958186,183.522375 307.53489,186.25544 L307.535172,186.25544 C309.141225,189.039767 310.805132,191.767167 312.513062,194.426878 L312.513062,194.426878 L312.513062,194.426878 Z M335.76316,213.713251 C332.553029,210.237302 329.351082,206.39232 326.22392,202.256471 C329.259646,202.375989 332.354635,202.437165 335.500141,202.437165 C338.73172,202.437165 341.92633,202.364094 345.070706,202.223618 C341.983336,206.433954 338.866052,210.284883 335.76316,213.713251 L335.76316,213.713251 L335.76316,213.713251 Z M368.090521,177.778125 C370.209631,182.62542 371.996016,187.315529 373.4144,191.775097 C368.817492,192.827539 363.854277,193.675215 358.624938,194.305094 C360.270783,191.687583 361.895462,188.986805 363.49192,186.208708 C365.107004,183.398043 366.64053,180.583128 368.090521,177.778125 L368.090521,177.778125 L368.090521,177.778125 Z M357.62507,182.812911 C355.146708,187.125489 352.602308,191.242362 350.019247,195.128412 C345.314534,195.466009 340.454043,195.639906 335.500141,195.639906 C330.566276,195.639906 325.767023,195.486117 321.145564,195.185056 C318.458366,191.248027 315.858654,187.118975 313.396095,182.850013 L313.39666,182.850013 C310.940592,178.592663 308.680095,174.299344 306.63182,170.0301 C308.679531,165.750941 310.934101,161.452808 313.376059,157.203105 L313.375494,157.203955 C315.823942,152.942923 318.400796,148.83398 321.063158,144.921591 C325.778312,144.563885 330.613405,144.377243 335.499859,144.377243 L335.500141,144.377243 C340.408608,144.377243 345.249909,144.565301 349.963651,144.926122 C352.585376,148.809906 355.144733,152.905538 357.602776,157.167136 C360.088758,161.476599 362.372396,165.746126 364.437603,169.933522 C362.378605,174.192854 360.100046,178.505432 357.62507,182.812911 L357.62507,182.812911 L357.62507,182.812911 Z M371.596972,106.908486 C376.906176,109.98113 378.970819,122.3731 375.635105,138.622797 C375.422319,139.659662 375.182724,140.715787 374.922526,141.786072 C368.344791,140.262919 361.202073,139.129476 353.723809,138.425393 C349.367343,132.199387 344.85284,126.539253 340.321405,121.638996 C341.539703,120.462787 342.756307,119.341239 343.967832,118.282849 C355.672746,108.060055 366.612591,104.023899 371.596972,106.908486 L371.596972,106.908486 L371.596972,106.908486 Z" id="Shape" fill="#FFFFFF" fill-rule="nonzero"></path>
                <path d="M335.5,155 C343.507994,155 350,161.491717 350,169.5 C350,177.507992 343.507994,184 335.5,184 C327.492007,184 321,177.507992 321,169.5 C321,161.491717 327.492007,155 335.5,155" id="Path" fill="#53C1DE" fill-rule="nonzero"></path>
                <path d="M543.760508,90.0430566 C543.416422,90.0743325 542.321603,90.1837984 541.336266,90.2619882 C518.610948,92.310563 497.324536,104.570736 483.84262,123.414497 C476.335288,133.89194 471.533724,145.776802 469.719453,158.365372 C469.078201,162.759643 469,164.057596 469,170.015664 C469,175.973733 469.078201,177.271685 469.719453,181.665956 C474.067449,211.706507 495.447703,236.9462 524.44477,246.29771 C529.637341,247.970973 535.111437,249.112545 541.336266,249.800616 C543.760508,250.066461 554.239492,250.066461 556.663734,249.800616 C567.408602,248.61213 576.511241,245.953674 585.488759,241.371747 C586.865103,240.668038 587.130987,240.480383 586.943304,240.324003 C586.818182,240.230175 580.953079,232.364273 573.914956,222.856384 L561.121212,205.576421 L545.089932,181.853612 C536.268818,168.81154 529.01173,158.146441 528.949169,158.146441 C528.886608,158.130803 528.824047,168.670798 528.792766,181.540852 C528.745846,204.075175 528.730205,204.982178 528.44868,205.513869 C528.042033,206.280129 527.729228,206.592889 527.072336,206.936924 C526.571847,207.187132 526.13392,207.234046 523.772238,207.234046 L521.066471,207.234046 L520.347019,206.780545 C519.87781,206.483423 519.533724,206.092474 519.29912,205.638973 L518.970674,204.935264 L519.001955,173.581123 L519.048876,142.211343 L519.533724,141.601462 C519.783969,141.273065 520.315738,140.850839 520.691105,140.647546 C521.332356,140.334786 521.5826,140.30351 524.288368,140.30351 C527.478983,140.30351 528.010753,140.428614 528.839687,141.335617 C529.074291,141.585824 537.754643,154.659172 548.139785,170.406613 C558.524927,186.154055 572.726295,207.656271 579.701857,218.211905 L592.370479,237.399701 L593.01173,236.977476 C598.689149,233.286914 604.695014,228.032554 609.449658,222.559263 C619.568915,210.940246 626.090909,196.772241 628.280548,181.665956 C628.921799,177.271685 629,175.973733 629,170.015664 C629,164.057596 628.921799,162.759643 628.280548,158.365372 C623.932551,128.324821 602.552297,103.085128 573.55523,93.7336188 C568.44086,92.0759934 562.998045,90.9344212 556.898338,90.2463503 C555.396872,90.0899705 545.058651,89.9179528 543.760508,90.0430566 L543.760508,90.0430566 Z M576.511241,138.426953 C577.261974,138.802265 577.871945,139.521612 578.090909,140.272234 C578.216031,140.678822 578.247312,149.373536 578.216031,168.967919 L578.169111,197.085 L573.211144,189.484944 L568.237537,181.884888 L568.237537,161.446053 C568.237537,148.231964 568.300097,140.803926 568.393939,140.444252 C568.644184,139.568525 569.191593,138.880455 569.942326,138.473867 C570.583578,138.14547 570.818182,138.114194 573.273705,138.114194 C575.588465,138.114194 575.995113,138.14547 576.511241,138.426953 Z" id="Shape" fill="#000000" fill-rule="nonzero"></path>
                <circle id="Oval" fill="#755A5A" cx="129.5" cy="176.5" r="96.5"></circle>
                <text id="Wallet-Provider-Logo" font-family="Helvetica" font-size="24" font-weight="normal" fill="#000000">
                    <tspan x="51" y="176">Wallet-Provider</tspan>
                    <tspan x="51" y="205">Logo</tspan>
                </text>
            </g>
        </g>
    </g>
</svg>