<?xml version="1.0" encoding="UTF-8"?>
<svg width="640px" height="360px" viewBox="0 0 640 360" version="1.1" xmlns="http://www.w3.org/2000/svg" xmlns:xlink="http://www.w3.org/1999/xlink">
    <title>wallet-provider-react</title>
    <g id="Page-1" stroke="none" stroke-width="1" fill="none" fill-rule="evenodd">
        <g id="Desktop-HD" transform="translate(-34.000000, -436.000000)">
            <g id="wallet-provider-react" transform="translate(34.000000, 436.000000)">
                <rect id="Rectangle-Copy" fill="#B5DDEF" x="0" y="0" width="640" height="360"></rect>
                <path d="M390,189.210839 C390,202.734176 403.20004,215.35876 424.010993,222.474662 C419.85524,243.404498 423.266209,260.273803 434.659218,266.847072 C446.370051,273.603061 463.816305,268.926504 480.375169,254.446356 C496.516258,268.341953 512.829707,273.810565 524.212099,267.218616 C535.911482,260.443014 539.470182,242.429555 535.199498,220.846435 C556.875207,213.677075 569,202.912186 569,189.210839 C569,176.001028 555.775468,164.572762 535.245208,157.50233 C539.842764,135.027216 535.947121,118.567258 524.082511,111.722532 C512.643784,105.123792 496.140961,110.875267 479.762485,125.134781 C462.723465,109.999433 446.383475,105.378422 434.530367,112.243098 C423.102757,118.860608 419.841787,136.036475 424.010993,157.353789 C403.902748,164.367488 390,176.053856 390,189.210839 Z" id="Path" fill="#FFFFFF" fill-rule="nonzero"></path>
                <path d="M530.729912,164.700736 C529.080484,164.134868 527.371339,163.599465 525.611534,163.093118 C525.900779,161.916529 526.166249,160.755173 526.402286,159.613563 C530.276801,140.867977 527.743508,125.766402 519.093067,120.79432 C510.798379,116.026753 497.233051,120.997706 483.532722,132.881504 C482.215274,134.024242 480.894146,135.234117 479.573585,136.502102 C478.693682,135.663173 477.815195,134.852452 476.938972,134.076993 C462.580627,121.370062 448.188602,116.015187 439.546652,121.001655 C431.259889,125.783045 428.805841,139.979964 432.29347,157.745295 C432.630261,159.461236 433.023939,161.213566 433.469126,162.995233 C431.432247,163.571539 429.465839,164.185926 427.584336,164.839524 C410.750716,170.68918 400,179.857036 400,189.366501 C400,199.187956 411.540902,209.039029 429.074425,215.01224 C430.458099,215.483609 431.893849,215.929308 433.373466,216.352439 C432.893185,218.279382 432.475451,220.167678 432.124791,222.00943 C428.799332,239.466439 431.396303,253.327956 439.660991,258.079162 C448.197659,262.985799 462.524589,257.94235 476.475388,245.787747 C477.578026,244.826955 478.684626,243.808054 479.793206,242.74007 C481.230089,244.119197 482.664705,245.424418 484.091682,246.648679 C497.604653,258.238824 510.950926,262.918945 519.207972,258.15448 C527.736149,253.233738 530.507744,238.343165 526.909454,220.226353 C526.634643,218.842711 526.314833,217.429169 525.955684,215.990521 C526.961812,215.694046 527.949545,215.387981 528.912655,215.069786 C547.14042,209.050313 559,199.319126 559,189.366501 C559,179.822622 547.902586,170.592988 530.729912,164.700736 L530.729912,164.700736 L530.729912,164.700736 Z" id="Path" fill="#53C1DE" fill-rule="nonzero"></path>
                <path d="M526.641516,209.221311 C525.774569,209.509344 524.885045,209.787749 523.978589,210.057657 C521.972081,203.682677 519.264,196.903827 515.950016,189.900102 C519.112454,183.063192 521.715834,176.371007 523.666183,170.037378 C525.28804,170.508371 526.862204,171.005138 528.37908,171.529376 C543.050577,176.598149 552,184.09241 552,189.866965 C552,196.017918 542.334895,204.002715 526.641516,209.221311 L526.641516,209.221311 L526.641516,209.221311 Z M520.129818,222.170655 C521.716399,230.213796 521.943013,237.48573 520.892065,243.170504 C519.947793,248.278645 518.048806,251.684354 515.700825,253.048338 C510.704308,255.950768 500.0193,252.178005 488.495846,242.226252 C487.174824,241.085445 485.844207,239.86732 484.509356,238.578106 C488.97673,233.674733 493.441564,227.974382 497.799159,221.643584 C505.463681,220.961027 512.704891,219.845143 519.27162,218.321708 C519.595032,219.631029 519.882321,220.915145 520.129818,222.170655 L520.129818,222.170655 L520.129818,222.170655 Z M454.279093,252.546757 C449.397436,254.276943 445.509438,254.326506 443.159199,252.966487 C438.158168,250.071705 436.079132,238.897577 438.915053,223.908488 C439.239876,222.191897 439.626503,220.428575 440.072111,218.626168 C446.566877,220.06747 453.755031,221.104618 461.437897,221.729683 C465.824841,227.924536 470.418645,233.618656 475.048007,238.604445 C474.036569,239.584383 473.029081,240.517307 472.027238,241.396419 C465.875921,246.792594 459.711623,250.62115 454.279093,252.546757 L454.279093,252.546757 L454.279093,252.546757 Z M431.409132,209.183642 C423.678289,206.531862 417.293868,203.085368 412.917647,199.324502 C408.985343,195.944848 407,192.589551 407,189.866965 C407,184.073151 415.607102,176.683115 429.962244,171.660223 C431.70404,171.050736 433.527395,170.476367 435.419608,169.936835 C437.40354,176.41349 440.006074,183.184976 443.146782,190.032365 C439.965436,196.981429 437.325932,203.860823 435.322528,210.413379 C433.973568,210.024236 432.666656,209.614702 431.409132,209.183642 L431.409132,209.183642 L431.409132,209.183642 Z M439.075348,156.813593 C436.095782,141.531656 438.074634,130.003504 443.054217,127.110704 C448.358342,124.028997 460.087243,128.422858 472.449141,139.438666 C473.239327,140.142749 474.032617,140.879685 474.828166,141.642111 C470.221663,146.606093 465.669909,152.257447 461.32191,158.415764 C453.865374,159.109368 446.727736,160.223552 440.16524,161.71555 C439.75265,160.049938 439.387189,158.413498 439.075348,156.813593 L439.075348,156.813593 L439.075348,156.813593 Z M507.464828,173.761143 C505.896027,171.041673 504.285457,168.386493 502.643564,165.803818 C507.702166,166.445593 512.548828,167.297516 517.100301,168.340046 C515.733843,172.73504 514.03071,177.33027 512.025895,182.041054 C510.587757,179.300909 509.066648,176.538106 507.464828,173.761143 L507.464828,173.761143 L507.464828,173.761143 Z M479.575773,146.499886 C482.69983,149.896533 485.828403,153.688837 488.905614,157.803444 C485.804697,157.656453 482.6654,157.579984 479.500141,157.579984 C476.364795,157.579984 473.24864,157.654754 470.166914,157.799196 C473.247229,153.722823 476.402894,149.935617 479.575773,146.499886 L479.575773,146.499886 L479.575773,146.499886 Z M451.50808,173.808157 C449.940972,176.535274 448.448084,179.283066 447.032522,182.035956 C445.060161,177.341599 443.372832,172.72541 441.994521,168.268108 C446.518055,167.252201 451.341859,166.421519 456.368289,165.791923 C454.703254,168.398389 453.079421,171.07311 451.50808,173.807591 L451.50808,173.808157 L451.50808,173.808157 Z M456.513062,214.426878 C451.319846,213.845429 446.423514,213.057514 441.90111,212.069645 C443.301433,207.532758 445.026014,202.81801 447.040142,198.022543 C448.459373,200.77345 449.958186,203.522375 451.53489,206.25544 L451.535172,206.25544 C453.141225,209.039767 454.805132,211.767167 456.513062,214.426878 L456.513062,214.426878 L456.513062,214.426878 Z M479.76316,233.713251 C476.553029,230.237302 473.351082,226.39232 470.22392,222.256471 C473.259646,222.375989 476.354635,222.437165 479.500141,222.437165 C482.73172,222.437165 485.92633,222.364094 489.070706,222.223618 C485.983336,226.433954 482.866052,230.284883 479.76316,233.713251 L479.76316,233.713251 L479.76316,233.713251 Z M512.090521,197.778125 C514.209631,202.62542 515.996016,207.315529 517.4144,211.775097 C512.817492,212.827539 507.854277,213.675215 502.624938,214.305094 C504.270783,211.687583 505.895462,208.986805 507.49192,206.208708 C509.107004,203.398043 510.64053,200.583128 512.090521,197.778125 L512.090521,197.778125 L512.090521,197.778125 Z M501.62507,202.812911 C499.146708,207.125489 496.602308,211.242362 494.019247,215.128412 C489.314534,215.466009 484.454043,215.639906 479.500141,215.639906 C474.566276,215.639906 469.767023,215.486117 465.145564,215.185056 C462.458366,211.248027 459.858654,207.118975 457.396095,202.850013 L457.39666,202.850013 C454.940592,198.592663 452.680095,194.299344 450.63182,190.0301 C452.679531,185.750941 454.934101,181.452808 457.376059,177.203105 L457.375494,177.203955 C459.823942,172.942923 462.400796,168.83398 465.063158,164.921591 C469.778312,164.563885 474.613405,164.377243 479.499859,164.377243 L479.500141,164.377243 C484.408608,164.377243 489.249909,164.565301 493.963651,164.926122 C496.585376,168.809906 499.144733,172.905538 501.602776,177.167136 C504.088758,181.476599 506.372396,185.746126 508.437603,189.933522 C506.378605,194.192854 504.100046,198.505432 501.62507,202.812911 L501.62507,202.812911 L501.62507,202.812911 Z M515.596972,126.908486 C520.906176,129.98113 522.970819,142.3731 519.635105,158.622797 C519.422319,159.659662 519.182724,160.715787 518.922526,161.786072 C512.344791,160.262919 505.202073,159.129476 497.723809,158.425393 C493.367343,152.199387 488.85284,146.539253 484.321405,141.638996 C485.539703,140.462787 486.756307,139.341239 487.967832,138.282849 C499.672746,128.060055 510.612591,124.023899 515.596972,126.908486 L515.596972,126.908486 L515.596972,126.908486 Z" id="Shape" fill="#FFFFFF" fill-rule="nonzero"></path>
                <path d="M479.5,175 C487.507994,175 494,181.491717 494,189.5 C494,197.507992 487.507994,204 479.5,204 C471.492007,204 465,197.507992 465,189.5 C465,181.491717 471.492007,175 479.5,175" id="Path" fill="#53C1DE" fill-rule="nonzero"></path>
                <circle id="Oval" fill="#755A5A" cx="197.5" cy="190.5" r="96.5"></circle>
                <text id="Wallet-Provider-Logo" font-family="Helvetica" font-size="24" font-weight="normal" fill="#000000">
                    <tspan x="119" y="190">Wallet-Provider</tspan>
                    <tspan x="119" y="219">Logo</tspan>
                </text>
            </g>
        </g>
    </g>
</svg>