<?xml version="1.0" encoding="UTF-8"?>
<svg width="640px" height="360px" viewBox="0 0 640 360" version="1.1" xmlns="http://www.w3.org/2000/svg" xmlns:xlink="http://www.w3.org/1999/xlink">
    <title>wallet-provider-svelte</title>
    <g id="Page-1" stroke="none" stroke-width="1" fill="none" fill-rule="evenodd">
        <g id="Desktop-HD" transform="translate(-714.000000, -1232.000000)">
            <g id="wallet-provider-svelte" transform="translate(714.000000, 1232.000000)">
                <rect id="Rectangle-Copy-6" fill="#B5DDEF" x="0" y="0" width="640" height="360"></rect>
                <path d="M541.859357,138.862159 C529.36095,120.919463 504.676595,115.601769 486.830312,127.008886 L455.488152,147.04972 C446.934802,152.439984 441.037402,161.193396 439.240222,171.166247 C437.741451,179.490868 439.052443,188.079266 442.965709,195.572171 C440.283713,199.654521 438.456126,204.240963 437.593797,209.05331 C435.785389,219.237538 438.146684,229.723171 444.143443,238.137841 C456.641851,256.080537 481.326205,261.398231 499.172489,249.991114 L530.514649,230.034688 C539.057447,224.633482 544.951347,215.885265 546.762579,205.918161 C548.25585,197.596102 546.940643,189.012035 543.025074,181.524295 C545.705689,177.439956 547.536913,172.854646 548.409003,168.043156 C550.211861,157.859057 547.85105,147.375574 541.859357,138.958625" id="back" fill="#FF3E00" fill-rule="nonzero"></path>
                <path d="M483.208461,240.191743 C473.039416,242.840963 462.30372,238.842793 456.315726,230.176394 C452.68942,225.083221 451.26374,218.736429 452.361623,212.573661 C452.539998,211.581352 452.790571,210.603501 453.111331,209.647966 L453.703841,207.826993 L455.324177,209.040975 C459.048621,211.770784 463.206604,213.847725 467.6218,215.183722 L468.831005,215.535776 L468.722177,216.749758 C468.605832,218.414274 469.072001,220.06734 470.040211,221.423587 C471.846994,224.030533 475.079859,225.231902 478.141889,224.434261 C478.825519,224.249783 479.477694,223.963329 480.076619,223.584474 L511.564336,203.4081 C513.128125,202.420221 514.203935,200.815562 514.52689,198.989207 C514.852522,197.129498 514.416503,195.216568 513.317684,193.684108 C511.510901,191.077162 508.278036,189.875793 505.216006,190.673433 C504.531571,190.855603 503.879058,191.142205 503.281277,191.52322 L491.189219,199.232004 C489.211537,200.490956 487.054644,201.440626 484.792521,202.048441 C474.641026,204.681558 463.930005,200.690233 457.948154,192.045232 C454.332856,186.94732 452.916206,180.60192 454.018235,174.442499 C455.097951,168.391234 458.666683,163.076487 463.849078,159.801881 L495.433531,139.625507 C497.399552,138.369079 499.544107,137.419456 501.793954,136.80907 C511.959589,134.158003 522.692921,138.15709 528.674597,146.824418 C532.305132,151.915793 533.735206,158.262739 532.640792,164.427151 C532.452142,165.42515 532.201755,166.410383 531.891084,167.377126 L531.286482,169.198099 L529.678238,167.984117 C525.946144,165.23351 521.775424,163.139914 517.344339,161.792811 L516.135134,161.440756 L516.243962,160.226775 C516.383616,158.554046 515.929602,156.885619 514.962204,155.516526 C513.144711,152.955212 509.938129,151.790289 506.908894,152.590831 C506.22446,152.773 505.571946,153.059602 504.974165,153.440618 L473.425987,173.580572 C471.868184,174.569023 470.793793,176.167164 470.463433,177.987326 C470.144132,179.850708 470.579452,181.764942 471.672639,183.304565 C473.470458,185.886902 476.670803,187.085127 479.713857,186.315239 C480.396597,186.128225 481.04841,185.841931 481.648586,185.465452 L493.740643,177.768809 C495.716847,176.496073 497.879272,175.541668 500.149434,174.940232 C510.312663,172.282926 521.04745,176.277708 527.030077,184.94344 C530.658058,190.035965 532.087888,196.381826 530.996272,202.546173 C529.916557,208.597439 526.347825,213.912186 521.16543,217.186791 L489.617252,237.363165 C487.635854,238.626151 485.474978,239.579872 483.208461,240.191743" id="front" fill="#FFFFFF" fill-rule="nonzero"></path>
                <circle id="Oval" fill="#755A5A" cx="187.5" cy="170.5" r="96.5"></circle>
                <text id="Wallet-Provider-Logo" font-family="Helvetica" font-size="24" font-weight="normal" fill="#000000">
                    <tspan x="109" y="170">Wallet-Provider</tspan>
                    <tspan x="109" y="199">Logo</tspan>
                </text>
            </g>
        </g>
    </g>
</svg>