<svg width="50" height="50" viewBox="0 0 50 50" fill="none" xmlns="http://www.w3.org/2000/svg">
<circle cx="25" cy="25" r="25" fill="black"/>
<circle cx="25.0002" cy="24.9999" r="16.6667" fill="url(#paint0_linear_0_1207)"/>
<path d="M21.8772 35.8802C24.2638 34.508 25.3142 31.8743 25.4459 29.3064C25.5715 26.8591 23.1465 25.4362 20.9824 24.2697C18.2472 22.7953 16.3853 19.9128 16.3853 16.6041C16.3853 15.3442 16.6563 14.1463 17.1423 13.0642C17.2845 12.7477 16.927 12.398 16.6402 12.5947C12.7118 15.2878 10.1353 19.7944 10.1353 24.9028C10.1353 29.2983 11.5999 22.8924 14.9708 33.4704C15.5979 35.4382 17.1618 37.1608 19.2063 36.8182C20.1276 36.6638 21.052 36.3545 21.8772 35.8802Z" fill="#1F1F1F"/>
<path d="M17.3428 16.6723C17.3428 19.4534 19.1044 21.7059 21.2672 23.1222C23.3286 24.472 25.7734 23.0737 27.8656 21.7734C30.5098 20.13 33.9406 19.9634 36.812 21.6399C37.9054 22.2783 38.8098 23.1221 39.5064 24.0952C39.7102 24.3799 40.192 24.2446 40.1645 23.8942C39.7873 19.0965 37.1618 14.5611 32.7283 11.9727C28.9137 9.74551 33.7423 14.2714 22.8802 11.8575C20.8594 11.4085 18.5841 11.9025 17.8614 13.8629C17.5357 14.7462 17.3429 15.7109 17.3428 16.6723Z" fill="#1F1F1F"/>
<path d="M36.4076 22.4019C34.0141 21.0417 31.1903 21.4492 28.8847 22.6093C26.6872 23.7149 26.6622 26.4931 26.7299 28.9213C26.8156 31.9902 25.2351 35.0106 22.3494 36.6505C21.2506 37.2749 20.07 37.6369 18.8825 37.7578C18.5351 37.7931 18.4094 38.272 18.7247 38.4198C23.0434 40.4432 28.2659 40.4122 32.7213 37.8802C36.5548 35.7017 30.2334 37.6246 37.7689 29.5002C39.1708 27.9888 39.889 25.798 38.5649 24.2201C37.9683 23.5092 37.235 22.8722 36.4076 22.4019Z" fill="#1F1F1F"/>
<defs>
<linearGradient id="paint0_linear_0_1207" x1="-0.666495" y1="20.4" x2="20.6668" y2="50.8" gradientUnits="userSpaceOnUse">
<stop stop-color="#FCECB2"/>
<stop offset="0.260417" stop-color="#FF8B89"/>
<stop offset="0.520833" stop-color="#FC8ADC"/>
<stop offset="0.755208" stop-color="#7954FF"/>
<stop offset="1" stop-color="#70BCFF"/>
</linearGradient>
</defs>
</svg>
