<svg width="50" height="50" viewBox="0 0 50 50" fill="none" xmlns="http://www.w3.org/2000/svg">
<circle cx="25" cy="25" r="24.5" fill="white" stroke="#324FFF"/>
<path d="M19.5874 27.5039L25.6061 21.3406L36.2807 32.1347L31.6248 39.8306L25.73 33.6739H22.7155" fill="#00E8FF"/>
<path fill-rule="evenodd" clip-rule="evenodd" d="M32.1075 15.3313L25.9248 21.4561V33.7057L32.1075 27.5809V15.3313ZM19.7418 39.8304L13.5591 33.7056L16.6504 27.5808H19.7418L22.8331 33.7056L19.7418 39.8304Z" fill="#283198"/>
<path fill-rule="evenodd" clip-rule="evenodd" d="M19.7031 15.4237L25.8472 9.32202V21.5254L19.7031 27.6271V15.4237ZM19.7031 27.6271L13.5591 33.7288V21.5254L19.7031 27.6271ZM31.9913 39.8305V27.6271L38.1354 21.5254V33.7288L31.9913 39.8305Z" fill="#324FFF"/>
<path d="M19.5874 39.8305V27.812L25.6155 33.8213" fill="#00FFFF"/>
</svg>
