<svg width="50" height="50" viewBox="0 0 50 50" fill="none" xmlns="http://www.w3.org/2000/svg">
<circle cx="25" cy="25" r="24.5" fill="white" stroke="black"/>
<path fill-rule="evenodd" clip-rule="evenodd" d="M23.3076 0.856629C23.3548 0.852124 23.3926 0.848517 23.4174 0.846259C23.8095 0.808467 26.9326 0.860431 27.3861 0.90767C29.2287 1.11553 30.8729 1.46038 32.4179 1.96112C41.1774 4.78605 47.636 12.4105 48.9495 21.4853C49.1432 22.8127 49.1668 23.2048 49.1668 25.0047C49.1668 26.8045 49.1432 27.1966 48.9495 28.524C48.288 33.0874 46.3179 37.3673 43.261 40.8772C41.8247 42.5306 40.0104 44.1178 38.2954 45.2327L38.1017 45.3602L34.2747 39.5639C32.1675 36.3753 27.8775 29.8798 24.7403 25.1228C21.6031 20.3657 18.9809 16.4165 18.9101 16.3409C18.6597 16.0669 18.499 16.0291 17.5352 16.0291C16.7178 16.0291 16.6422 16.0386 16.4485 16.133C16.3351 16.1944 16.1745 16.322 16.0989 16.4212L15.9524 16.6054L15.9383 26.0817L15.9288 35.5533L16.028 35.7659C16.0989 35.9029 16.2028 36.021 16.3446 36.1107L16.5619 36.2477H17.3793C18.0927 36.2477 18.225 36.2335 18.3762 36.158C18.5746 36.054 18.6691 35.9595 18.792 35.7281C18.877 35.5675 18.8817 35.2935 18.8959 28.4862C18.9053 24.5984 18.9242 21.4144 18.9431 21.4192C18.962 21.4192 21.1543 24.6409 23.819 28.5807L28.6618 35.747L32.5266 40.967C34.6527 43.8391 36.4244 46.2153 36.4622 46.2436C36.5189 46.2909 36.4386 46.3476 36.0228 46.5601C33.3109 47.9443 30.5611 48.7473 27.3153 49.1064C26.5829 49.1867 23.4174 49.1867 22.6851 49.1064C20.8047 48.8985 19.151 48.5537 17.5824 48.0482C8.82291 45.2233 2.36429 37.5988 1.05083 28.524C0.857119 27.1966 0.833496 26.8045 0.833496 25.0047C0.833496 23.2048 0.857119 22.8127 1.05083 21.4853C1.59889 17.6825 3.04936 14.0923 5.3172 10.9272C9.38987 5.23483 15.8201 1.53123 22.6851 0.912394C22.9116 0.894419 23.1573 0.870973 23.3076 0.856629ZM34.1213 16.4737C34.0483 16.2509 33.8447 16.0374 33.5942 15.9261C33.422 15.8425 33.2863 15.8333 32.5139 15.8333C31.6946 15.8333 31.6163 15.8425 31.4023 15.94C31.1518 16.0606 30.9692 16.2648 30.8857 16.5247C30.8544 16.6314 30.8335 18.8358 30.8335 22.7571V28.8225L32.4931 31.0779L34.1474 33.3333L34.1631 24.9893C34.1735 19.1745 34.1631 16.5943 34.1213 16.4737Z" fill="black"/>
</svg>
