<svg width="50" height="50" viewBox="0 0 50 50" fill="none" xmlns="http://www.w3.org/2000/svg">
<circle cx="25" cy="25" r="25" fill="#222222"/>
<path fill-rule="evenodd" clip-rule="evenodd" d="M34.492 19.3815C34.8702 19.4892 35.2374 19.6032 35.5919 19.7236C39.282 20.9772 41.6667 22.941 41.6667 24.9716C41.6667 27.0892 39.1182 29.1596 35.2014 30.4404C34.9944 30.5081 34.7822 30.5732 34.5659 30.6363C34.6431 30.9424 34.7118 31.2431 34.7709 31.5375C35.5441 35.3922 34.9485 38.5604 33.116 39.6073C31.3417 40.6211 28.4737 39.6253 25.57 37.1593C25.2634 36.8988 24.9551 36.6211 24.6463 36.3277C24.4081 36.5549 24.1703 36.7717 23.9334 36.9761C20.9356 39.5622 17.8569 40.6353 16.0225 39.5913C14.2466 38.5804 13.6885 35.6312 14.4031 31.9169C14.4785 31.525 14.5682 31.1233 14.6714 30.7133C14.3535 30.6233 14.045 30.5284 13.7476 30.4281C9.97996 29.1572 7.5 27.0613 7.5 24.9716C7.5 22.9483 9.81016 20.9977 13.4275 19.7531C13.8318 19.614 14.2543 19.4833 14.692 19.3607C14.5963 18.9816 14.5117 18.6088 14.4394 18.2437C13.6899 14.4638 14.2173 11.4432 15.998 10.4259C17.855 9.36493 20.9476 10.5043 24.033 13.2079C24.2213 13.3729 24.4101 13.5454 24.5991 13.7239C24.8829 13.4541 25.1668 13.1966 25.4499 12.9535C28.3939 10.425 31.3089 9.36739 33.0913 10.3818C34.9501 11.4397 35.4945 14.6528 34.6619 18.6412C34.6112 18.8841 34.5542 19.1312 34.492 19.3815ZM33.208 18.4303C33.9247 14.9729 33.4811 12.3363 32.3402 11.6826C31.2692 11.0688 28.9184 11.9276 26.4031 14.1026C26.1428 14.3278 25.8814 14.5664 25.6196 14.8167C26.5933 15.8593 27.5634 17.0636 28.4996 18.3883C30.1065 18.5381 31.6414 18.7792 33.0548 19.1033C33.1107 18.8756 33.1622 18.6509 33.208 18.4303ZM16.7519 11.7256C15.6819 12.3411 15.2566 14.7939 15.8969 18.0453C15.9639 18.3857 16.0424 18.7339 16.1311 19.0883C17.5413 18.7709 19.075 18.5338 20.6773 18.3862C21.6117 17.0759 22.5898 15.8735 23.5796 14.8174C23.4087 14.6551 23.2382 14.4984 23.0684 14.3485C20.412 12.0048 17.8917 11.0699 16.7519 11.7256ZM14.2495 29.1878C12.5883 28.6236 11.2164 27.8903 10.276 27.0901C9.43101 26.371 9.00439 25.6571 9.00439 25.0779C9.00439 23.8451 10.8539 22.2728 13.9386 21.2041C14.3129 21.0744 14.7047 20.9522 15.1113 20.8374C15.5377 22.2154 16.0969 23.6562 16.7718 25.113C16.0882 26.5916 15.521 28.0553 15.0905 29.4494C14.8006 29.3666 14.5198 29.2795 14.2495 29.1878ZM34.7135 29.1959C34.5272 29.2572 34.3361 29.3164 34.1413 29.3739C33.7101 28.0175 33.1282 26.5752 32.4161 25.085C33.0956 23.6304 33.6551 22.2065 34.0742 20.8589C34.4227 20.9591 34.7609 21.0648 35.0869 21.1764C38.2396 22.2548 40.1627 23.8493 40.1627 25.078C40.1627 26.3867 38.0858 28.0856 34.7135 29.1959ZM33.3144 31.951C33.6554 33.6623 33.7041 35.2095 33.4782 36.4191C33.2753 37.5059 32.8673 38.2305 32.3627 38.5207C31.2891 39.1383 28.993 38.3355 26.5168 36.2182C26.2329 35.9754 25.947 35.7163 25.6602 35.442C26.6201 34.3987 27.5796 33.1858 28.5159 31.8389C30.1629 31.6936 31.7189 31.4562 33.13 31.1321C33.1995 31.4107 33.2613 31.6839 33.3144 31.951ZM16.7745 38.5034C17.2795 38.7928 18.115 38.7822 19.1639 38.4141C20.3313 38.0044 21.6559 37.1898 22.9778 36.0417C23.193 35.8546 23.4095 35.6561 23.6269 35.4477C22.6321 34.3868 21.645 33.1753 20.7023 31.8573C19.0513 31.7243 17.5067 31.5036 16.1111 31.197C16.0153 31.5804 15.9323 31.9556 15.8625 32.3209C15.2531 35.51 15.6998 37.8875 16.7745 38.5034ZM30.5927 21.6512C30.2556 21.0726 29.9095 20.5077 29.5567 19.9582C30.6437 20.0947 31.6852 20.276 32.6633 20.4978C32.3696 21.4329 32.0037 22.4106 31.5729 23.4129C31.2638 22.8299 30.937 22.242 30.5927 21.6512ZM26.6048 18.2558C25.9435 17.3804 25.2713 16.5735 24.5999 15.8508C23.9181 16.5818 23.24 17.3876 22.5781 18.2549C23.2403 18.2242 23.91 18.2083 24.5837 18.2083C25.2639 18.2083 25.9384 18.2246 26.6048 18.2558ZM18.5687 21.6611C18.232 22.2414 17.9112 22.826 17.607 23.4117C17.1832 22.4129 16.8206 21.4308 16.5244 20.4824C17.4965 20.2663 18.533 20.0895 19.6131 19.9556C19.2553 20.5101 18.9064 21.0792 18.5687 21.661V21.6611ZM16.5039 29.802C17.4757 30.0122 18.5278 30.1798 19.6438 30.3035C19.2768 29.7376 18.9192 29.1573 18.5741 28.5649H18.5741C18.2352 27.9834 17.9132 27.3985 17.6082 26.8132C17.1754 27.8335 16.8048 28.8367 16.5039 29.802ZM24.6401 34.407C23.9503 33.6674 23.2622 32.8493 22.5902 31.9694C23.2426 31.9948 23.9076 32.0078 24.5836 32.0078C25.278 32.0078 25.9645 31.9923 26.6401 31.9624C25.9767 32.8582 25.3068 33.6775 24.6401 34.407ZM32.7308 29.7393C32.426 28.7904 32.0421 27.7925 31.5867 26.7612C31.2752 27.358 30.9456 27.9569 30.5986 28.5549C30.2555 29.146 29.9064 29.7207 29.5527 30.2776C30.6764 30.1436 31.743 29.9632 32.7308 29.7393ZM29.338 27.8323C28.8055 28.7499 28.2587 29.6258 27.7037 30.4527C26.6927 30.5245 25.6482 30.5615 24.5837 30.5615C23.5235 30.5615 22.4922 30.5288 21.4992 30.4647C20.9217 29.627 20.3631 28.7485 19.8339 27.8402H19.834C19.3063 26.9344 18.8205 26.0209 18.3804 25.1126C18.8204 24.2021 19.3049 23.2876 19.8296 22.3834L19.8295 22.3836C20.3556 21.477 20.9093 20.6028 21.4814 19.7704C22.4947 19.6943 23.5336 19.6545 24.5837 19.6545H24.5837C25.6385 19.6545 26.6788 19.6946 27.6917 19.7713C28.2551 20.5977 28.8051 21.4691 29.3332 22.3758C29.8674 23.2927 30.3582 24.2011 30.8019 25.092C30.3595 25.9983 29.8699 26.9159 29.338 27.8323ZM24.5833 26.6667C25.7339 26.6667 26.6667 25.7339 26.6667 24.5833C26.6667 23.4327 25.7339 22.5 24.5833 22.5C23.4327 22.5 22.5 23.4327 22.5 24.5833C22.5 25.7339 23.4327 26.6667 24.5833 26.6667Z" fill="#49D8FF"/>
</svg>
