<svg width="50" height="50" viewBox="0 0 50 50" fill="none" xmlns="http://www.w3.org/2000/svg">
<circle cx="25" cy="25" r="24.5" fill="white" stroke="#FF3E00"/>
<path d="M35.7213 14.094C32.9788 10.1517 27.5623 8.98338 23.6462 11.4897L16.7688 15.8928C14.8919 17.0772 13.5978 19.0004 13.2035 21.1915C12.8746 23.0205 13.1623 24.9075 14.021 26.5538C13.4325 27.4507 13.0314 28.4584 12.8422 29.5157C12.4454 31.7533 12.9635 34.0571 14.2794 35.9059C17.0219 39.8481 22.4385 41.0165 26.3545 38.5102L33.2319 34.1256C35.1065 32.9389 36.3998 31.0168 36.7972 28.8269C37.1249 26.9985 36.8363 25.1124 35.9771 23.4673C36.5653 22.5699 36.9671 21.5625 37.1585 20.5053C37.5541 18.2678 37.0361 15.9644 35.7213 14.1151" fill="#FF3E00"/>
<path d="M22.9584 36.2645C20.7242 36.8419 18.3654 35.9706 17.0498 34.082C16.253 32.9721 15.9398 31.5891 16.181 30.2461C16.2202 30.0298 16.2753 29.8167 16.3457 29.6085L16.4759 29.2117L16.8319 29.4762C17.6502 30.0711 18.5638 30.5237 19.5338 30.8149L19.7995 30.8916L19.7756 31.1561C19.7501 31.5189 19.8525 31.8791 20.0652 32.1746C20.4622 32.7427 21.1725 33.0045 21.8452 32.8307C21.9954 32.7905 22.1387 32.7281 22.2703 32.6455L29.1885 28.2487C29.5321 28.0335 29.7685 27.6838 29.8394 27.2858C29.911 26.8805 29.8152 26.4637 29.5737 26.1297C29.1768 25.5616 28.4665 25.2998 27.7937 25.4736C27.6433 25.5133 27.5 25.5758 27.3686 25.6588L24.7119 27.3387C24.2774 27.613 23.8035 27.82 23.3064 27.9524C21.0761 28.5263 18.7227 27.6565 17.4084 25.7726C16.6141 24.6616 16.3029 23.2789 16.545 21.9366C16.7822 20.6179 17.5663 19.4598 18.7049 18.7462L25.6444 14.3494C26.0764 14.0756 26.5475 13.8687 27.0419 13.7356C29.2754 13.1579 31.6336 14.0294 32.9478 15.9182C33.7455 17.0277 34.0597 18.4108 33.8193 19.7541C33.7778 19.9716 33.7228 20.1863 33.6545 20.397L33.5217 20.7938L33.1683 20.5292C32.3484 19.9298 31.432 19.4736 30.4585 19.18L30.1928 19.1033L30.2167 18.8388C30.2474 18.4743 30.1476 18.1107 29.9351 17.8123C29.5357 17.2542 28.8312 17.0003 28.1657 17.1748C28.0153 17.2145 27.8719 17.2769 27.7406 17.3599L20.8091 21.7488C20.4668 21.9642 20.2308 22.3125 20.1582 22.7091C20.088 23.1152 20.1837 23.5323 20.4239 23.8678C20.8189 24.4306 21.522 24.6917 22.1906 24.5239C22.3406 24.4832 22.4838 24.4208 22.6157 24.3387L25.2725 22.6615C25.7066 22.3841 26.1818 22.1762 26.6805 22.0451C28.9135 21.466 31.2721 22.3365 32.5865 24.225C33.3836 25.3347 33.6978 26.7176 33.4579 28.0609C33.2207 29.3796 32.4366 30.5378 31.298 31.2514L24.3665 35.6481C23.9312 35.9234 23.4564 36.1312 22.9584 36.2645Z" fill="white"/>
</svg>
