<svg width="50" height="50" viewBox="0 0 50 50" fill="none" xmlns="http://www.w3.org/2000/svg">
<circle cx="25" cy="25" r="24.5" fill="white" stroke="#8877FF"/>
<path d="M39.9007 15.3428L25.8082 41.2632C25.5173 41.7984 24.7697 41.8015 24.4744 41.269L10.1025 15.3453C9.78073 14.7649 10.2632 14.062 10.9026 14.1795L25.0102 16.7733C25.1001 16.7898 25.1923 16.7896 25.2823 16.7728L39.0948 14.1832C39.7321 14.0638 40.2168 14.7613 39.9007 15.3428Z" fill="url(#paint0_linear_0_1314)"/>
<path d="M31.943 10.8409L21.4933 12.9459C21.3215 12.9805 21.1944 13.1301 21.184 13.3097L20.5412 24.4708C20.5261 24.7337 20.7609 24.9377 21.0105 24.8785L23.9198 24.1883C24.1921 24.1237 24.438 24.3702 24.3821 24.6516L23.5177 29.003C23.4595 29.2959 23.727 29.5463 24.0052 29.4595L25.8021 28.8982C26.0807 28.8112 26.3484 29.0624 26.2894 29.3555L24.9158 36.1906C24.8299 36.6181 25.383 36.8513 25.6137 36.4847L25.7678 36.2399L34.2828 18.7698C34.4254 18.4773 34.1795 18.1438 33.867 18.2058L30.8723 18.8C30.5909 18.8558 30.3515 18.5863 30.4309 18.3033L32.3855 11.3373C32.465 11.0538 32.2247 10.7841 31.943 10.8409Z" fill="url(#paint1_linear_0_1314)"/>
<defs>
<linearGradient id="paint0_linear_0_1314" x1="-3.6125" y1="21.292" x2="11.8696" y2="47.0301" gradientUnits="userSpaceOnUse">
<stop stop-color="#41D1FF"/>
<stop offset="1" stop-color="#BD34FE"/>
</linearGradient>
<linearGradient id="paint1_linear_0_1314" x1="18.4167" y1="14.3915" x2="27.9958" y2="33.6241" gradientUnits="userSpaceOnUse">
<stop stop-color="#FFEA83"/>
<stop offset="0.0833333" stop-color="#FFDD35"/>
<stop offset="1" stop-color="#FFA800"/>
</linearGradient>
</defs>
</svg>
