<svg width="50" height="50" viewBox="0 0 50 50" fill="none" xmlns="http://www.w3.org/2000/svg">
<circle cx="25" cy="25" r="24.5" fill="white" stroke="#0759E7"/>
<path d="M13.7715 38.9481L31.364 31.786L32.3221 28.8938L29.428 27.6987L32.971 17.8585L29.9425 16.7285L31.7902 12.2187L28.5336 10.9307C28.2908 10.818 28.0149 10.7988 27.7587 10.8767L12.277 15.7595C11.4705 16.005 10.9193 16.749 10.9194 17.5921V35.8902C10.9193 36.2578 11.0857 36.6057 11.372 36.8363L13.594 38.8139" fill="#5493F7"/>
<path fill-rule="evenodd" clip-rule="evenodd" d="M35.5733 24.9386L36.6022 24.9883L39.3013 30.874L36.108 38.441L35.1541 37.7003C35.0541 37.6377 34.9934 37.528 34.9935 37.4101L35.0339 35.2338L27.8512 38.4756L26.9882 37.6226C26.9062 37.5424 26.8607 37.4321 26.8625 37.3174L26.8947 35.1518L14.9265 39.0945C14.5131 39.231 14.0593 39.1607 13.7066 38.9054C13.3539 38.6502 13.1451 38.2411 13.1455 37.8057V18.9092C13.1455 18.0661 13.6966 17.3221 14.5031 17.0764L30.7682 12.1232C31.1795 11.9975 31.626 12.0744 31.9716 12.3303C32.3172 12.5863 32.5208 12.991 32.5205 13.4211V15.9475C32.5205 16.2449 32.3302 16.5089 32.0481 16.603L21.4594 20.1345C20.993 20.29 20.6784 20.7266 20.6784 21.2183V31.54C20.6783 31.7612 20.783 31.9693 20.9605 32.1011C21.138 32.233 21.3675 32.273 21.5792 32.2091L30.4802 29.3555L35.3031 27.7693V25.196C35.3031 25.1255 35.332 25.0581 35.3831 25.0094C35.4341 24.9608 35.5029 24.9352 35.5733 24.9386ZM21.8444 30.0381V21.9734C21.8445 21.639 22.0573 21.3417 22.3739 21.2339L32.6092 17.8382C32.763 17.7888 32.9312 17.8159 33.0618 17.911C33.1923 18.0061 33.2696 18.1579 33.2698 18.3195V26.5672C33.2697 26.934 33.0281 27.257 32.6762 27.3605L22.5232 30.5485C22.3628 30.5948 22.1899 30.563 22.0565 30.4627C21.923 30.3623 21.8445 30.2051 21.8444 30.0381Z" fill="#2845AE"/>
<path fill-rule="evenodd" clip-rule="evenodd" d="M23.5415 25.7608C23.5383 24.6764 24.3171 23.5602 25.2788 23.2678C26.2408 22.9755 27.0206 23.6185 27.021 24.7023C27.0214 25.7861 26.2434 26.9026 25.2837 27.1951C24.3239 27.4875 23.5448 26.8452 23.5415 25.7608ZM36.7135 25.0372L41.9853 30.1091C42.2278 30.3341 42.2563 30.708 42.0506 30.9672L36.3457 38.3865C36.294 38.4515 36.2069 38.4768 36.1284 38.4494C36.05 38.4221 35.9974 38.3481 35.9972 38.2651L36.115 35.7087L28.0557 38.5276C27.9951 38.548 27.9283 38.5374 27.8769 38.4994C27.8255 38.4613 27.7959 38.4005 27.7977 38.3365L28.0035 31.3863C28.0059 31.3041 28.0596 31.2321 28.1377 31.2064L36.3852 28.4134V25.1805C36.3851 25.1028 36.4311 25.0324 36.5024 25.0013C36.5736 24.9702 36.6565 24.9843 36.7135 25.0372Z" fill="#5493F7"/>
</svg>
