<?xml version="1.0" encoding="UTF-8"?>
<svg width="640px" height="360px" viewBox="0 0 640 360" version="1.1" xmlns="http://www.w3.org/2000/svg" xmlns:xlink="http://www.w3.org/1999/xlink">
    <title>cosmwasm-react</title>
    <defs>
        <linearGradient x1="18.6%" y1="4.20019697%" x2="82.6%" y2="95.4001515%" id="linearGradient-1">
            <stop stop-color="#FCECB2" offset="0%"></stop>
            <stop stop-color="#FF8B89" offset="26.0417%"></stop>
            <stop stop-color="#FC8ADC" offset="52.0833%"></stop>
            <stop stop-color="#7954FF" offset="75.5208%"></stop>
            <stop stop-color="#70BCFF" offset="100%"></stop>
        </linearGradient>
    </defs>
    <g id="Page-1" stroke="none" stroke-width="1" fill="none" fill-rule="evenodd">
        <g id="Desktop-HD" transform="translate(-34.000000, -38.000000)">
            <g id="cosmwasm-react" transform="translate(34.000000, 38.000000)">
                <rect id="Rectangle" fill="#B5DDEF" x="0" y="0" width="640" height="360"></rect>
                <g id="Group-Copy" transform="translate(76.000000, 102.000000)" fill-rule="nonzero">
                    <circle id="Oval" fill="url(#linearGradient-1)" cx="70.5" cy="70.5" r="70.5"></circle>
                    <path d="M57.8342041,116.843042 C67.9630786,111.032488 72.4210953,99.8801349 72.9801426,89.0067769 C73.5130382,78.6434903 63.2212511,72.6182593 54.0364121,67.6787668 C42.4280342,61.435877 34.5259172,49.2297314 34.5259172,35.2192749 C34.5259172,29.8842908 35.6759514,24.8121158 37.7387246,20.2300353 C38.3423585,18.8894741 36.825128,17.4089468 35.6075709,18.2416941 C18.9353346,29.6455476 8,48.7286049 8,70.3598892 C8,88.9722752 14.2161005,61.8467027 28.5225891,106.638633 C31.184066,114.971431 37.8216814,122.265771 46.4987048,120.814783 C50.4086064,120.161168 54.3320126,118.851381 57.8342041,116.843042 Z" id="Path" fill="#1F1F1F"></path>
                    <path d="M38,35.7283537 C38,47.5737163 45.48727,57.1678022 54.6794834,63.2002252 C63.4404804,68.9493389 73.8312311,62.9935506 82.7233282,57.4552362 C93.9617307,50.4556544 108.542756,49.7459704 120.746844,56.886664 C125.394041,59.6057808 129.2375,63.199791 132.198177,67.3443545 C133.064465,68.557048 135.112154,67.9808774 134.995192,66.4885654 C133.392215,46.053399 122.233287,26.7360555 103.390653,15.7110521 C87.1779453,6.22484072 107.700246,25.5020867 61.5346026,15.2206341 C52.9462635,13.3079607 43.2757063,15.4119384 40.2040662,23.761852 C38.8198038,27.524328 38,31.6330708 38,35.7283537 Z" id="Path" fill="#1F1F1F"></path>
                    <path d="M118.86608,59.6415555 C108.700919,53.8501243 96.7085497,55.5849425 86.9166172,60.5246739 C77.5841757,65.2325867 77.4776925,77.0623401 77.7655197,87.4016189 C78.1294985,100.469224 71.4171878,113.330061 59.16173,120.31264 C54.4949715,122.971549 49.4810133,124.512972 44.4377991,125.027559 C42.9623084,125.178071 42.4283868,127.217098 43.7677082,127.84632 C62.1088395,136.462032 84.2887421,136.329989 103.210691,125.548938 C119.491427,116.272798 92.6447654,124.460537 124.647577,89.8664958 C130.601169,83.4309826 133.65132,74.1026197 128.028149,67.3839141 C125.494495,64.3564738 122.380024,61.6442812 118.86608,59.6415555 Z" id="Path" fill="#1F1F1F"></path>
                </g>
                <g id="react-seeklogo.com-copy" transform="translate(363.773425, 92.640715)" fill-rule="nonzero">
                    <path d="M0.226574934,79.5701234 C0.226574934,93.0934603 13.4266151,105.718045 34.2375679,112.833946 C30.0818149,133.763782 33.4927839,150.633088 44.8857924,157.206356 C56.5966261,163.962345 74.0428803,159.285788 90.601744,144.805641 C106.742833,158.701237 123.056282,164.169849 134.438674,157.577901 C146.138057,150.802298 149.696757,132.788839 145.426073,111.20572 C167.101782,104.03636 179.226575,93.2714706 179.226575,79.5701234 C179.226575,66.3603123 166.002043,54.9320464 145.471783,47.8616149 C150.069339,25.3865005 146.173696,8.92654265 134.309086,2.08181639 C122.870359,-4.51692356 106.367536,1.23455105 89.9890602,15.4940654 C72.9500396,0.35871778 56.6100498,-4.26229378 44.756942,2.60238207 C33.3293322,9.21989222 30.0683624,26.39576 34.2375679,47.7130736 C14.1293233,54.7267721 0.226574934,66.4131402 0.226574934,79.5701234 Z" id="Path" fill="#FFFFFF"></path>
                    <path d="M140.956487,55.0600209 C139.307059,54.4941526 137.597914,53.9587497 135.838109,53.452402 C136.127354,52.2758134 136.392824,51.1144575 136.628861,49.9728478 C140.503376,31.2272612 137.970083,16.1256861 129.319642,11.1536049 C121.024954,6.38603747 107.459626,11.3569903 93.7592968,23.2407889 C92.4418485,24.383527 91.1207207,25.5934019 89.8001601,26.8613869 C88.9202571,26.0224576 88.0417698,25.211737 87.1655471,24.4362774 C72.8072017,11.7293462 58.4151771,6.37447185 49.7732267,11.3609395 C41.4864637,16.1423293 39.0324159,30.3392486 42.520045,48.1045798 C42.8568362,49.8205204 43.250514,51.5728504 43.6957012,53.3545175 C41.6588216,53.930823 39.6924135,54.5452105 37.8109108,55.1988081 C20.9772914,61.0484647 10.2265749,70.2163209 10.2265749,79.7257856 C10.2265749,89.5472404 21.7674773,99.3983138 39.3009998,105.371524 C40.6846741,105.842893 42.1204237,106.288592 43.6000412,106.711724 C43.1197599,108.638667 42.7020255,110.526963 42.3513663,112.368715 C39.0259065,129.825724 41.6228783,143.68724 49.8875659,148.438447 C58.4242337,153.345084 72.7511638,148.301634 86.701963,136.147031 C87.804601,135.18624 88.9112008,134.167339 90.0197813,133.099354 C91.4566637,134.478482 92.8912802,135.783702 94.318257,137.007964 C107.831228,148.598109 121.177501,153.278229 129.434547,148.513765 C137.962724,143.593023 140.734319,128.70245 137.136029,110.585637 C136.861218,109.201996 136.541408,107.788453 136.182259,106.349806 C137.188387,106.05333 138.17612,105.747265 139.13923,105.42907 C157.366995,99.4095973 169.226575,89.6784107 169.226575,79.7257856 C169.226575,70.1819065 158.129161,60.9522727 140.956487,55.0600209 L140.956487,55.0600209 L140.956487,55.0600209 Z" id="Path" fill="#53C1DE"></path>
                    <path d="M136.868091,99.5805952 C136.001144,99.8686284 135.11162,100.147033 134.205164,100.416941 C132.198656,94.0419619 129.490575,87.2631119 126.176591,80.2593862 C129.339029,73.4224761 131.942409,66.7302916 133.892758,60.3966622 C135.514615,60.8676556 137.088779,61.364422 138.605654,61.8886606 C153.277152,66.9574333 162.226575,74.4516944 162.226575,80.2262491 C162.226575,86.3772025 152.56147,94.3619992 136.868091,99.5805952 L136.868091,99.5805952 L136.868091,99.5805952 Z M130.356393,112.52994 C131.942974,120.57308 132.169587,127.845014 131.11864,133.529789 C130.174368,138.637929 128.275381,142.043639 125.9274,143.407622 C120.930883,146.310052 110.245875,142.53729 98.7224206,132.585536 C97.4013988,131.444729 96.0707816,130.226604 94.7359313,128.93739 C99.2033053,124.034018 103.668139,118.333667 108.025734,112.002869 C115.690256,111.320312 122.931466,110.204428 129.498194,108.680992 C129.821607,109.990314 130.108896,111.27443 130.356393,112.52994 L130.356393,112.52994 L130.356393,112.52994 Z M64.5056683,142.906041 C59.6240113,144.636227 55.7360134,144.685791 53.385774,143.325772 C48.3847426,140.430989 46.3057065,129.256862 49.141628,114.267773 C49.4664509,112.551181 49.8530777,110.78786 50.2986862,108.985453 C56.7934517,110.426755 63.9816055,111.463903 71.6644721,112.088968 C76.0514163,118.28382 80.6452199,123.977941 85.2745816,128.96373 C84.2631435,129.943668 83.2556557,130.876592 82.2538128,131.755704 C76.1024962,137.151878 69.938198,140.980434 64.5056683,142.906041 L64.5056683,142.906041 L64.5056683,142.906041 Z M41.6357065,99.5429267 C33.9048641,96.8911462 27.5204425,93.4446526 23.1442223,89.6837862 C19.2119176,86.3041323 17.2265749,82.9488352 17.2265749,80.2262491 C17.2265749,74.4324359 25.8336773,67.042399 40.1888192,62.0195078 C41.9306152,61.4100202 43.7539697,60.8356519 45.6461832,60.2961194 C47.6301148,66.7727745 50.2326492,73.5442605 53.3733569,80.3916494 C50.1920111,87.3407134 47.5525073,94.2201071 45.5491032,100.772664 C44.2001426,100.383521 42.8932312,99.9739865 41.6357065,99.5429267 L41.6357065,99.5429267 L41.6357065,99.5429267 Z M49.3019229,47.1728779 C46.3223568,31.8909402 48.3012086,20.3627888 53.2807922,17.4699886 C58.5849166,14.3882813 70.3138182,18.7821428 82.6757163,29.7979508 C83.4659019,30.5020336 84.2591924,31.2389697 85.0547409,32.0013957 C80.4482379,36.9653773 75.8964838,42.6167318 71.5484848,48.7750485 C64.0919493,49.4686521 56.954311,50.5828362 50.3918153,52.0748345 C49.9792252,50.4092229 49.6137642,48.7727828 49.3019229,47.1728779 L49.3019229,47.1728779 L49.3019229,47.1728779 Z M117.691403,64.1204273 C116.122602,61.4009572 114.512032,58.7457779 112.870139,56.1631027 C117.928741,56.8048772 122.775403,57.6568004 127.326876,58.69933 C125.960418,63.0943244 124.257285,67.6895548 122.25247,72.4003384 C120.814332,69.6601935 119.293223,66.8973909 117.691403,64.1204273 L117.691403,64.1204273 L117.691403,64.1204273 Z M89.8023479,36.8591701 C92.9264054,40.2558172 96.054978,44.0481212 99.1321888,48.1627287 C96.0312723,48.015738 92.8919754,47.9392688 89.7267162,47.9392688 C86.5913704,47.9392688 83.4752151,48.0140387 80.3934891,48.1584804 C83.473804,44.0821075 86.6294687,40.2949013 89.8023479,36.8591701 L89.8023479,36.8591701 L89.8023479,36.8591701 Z M61.7346549,64.1674417 C60.1675465,66.8945587 58.6746591,69.6423507 57.2590971,72.3952408 C55.2867361,67.7008836 53.5994065,63.0846949 52.2210962,58.6273923 C56.7446295,57.6114853 61.5684336,56.7808037 66.5948639,56.1512075 C64.9298289,58.7576731 63.3059964,61.4323946 61.7346549,64.1668752 L61.7346549,64.1674417 L61.7346549,64.1674417 Z M66.7396373,104.786163 C61.5464212,104.204713 56.6500894,103.416799 52.1276849,102.42893 C53.5280076,97.8920425 55.2525888,93.177294 57.2667167,88.3818273 C58.6859475,91.1327347 60.1847612,93.8816598 61.7614648,96.6147248 L61.7617469,96.6147248 C63.3678003,99.3990517 65.0317065,102.126452 66.7396373,104.786163 L66.7396373,104.786163 L66.7396373,104.786163 Z M89.9897353,124.072535 C86.7796039,120.596587 83.5776568,116.751604 80.4504952,112.615755 C83.4862207,112.735274 86.5812103,112.79645 89.7267162,112.79645 C92.9582953,112.79645 96.1529045,112.723379 99.2972814,112.582902 C96.2099106,116.793238 93.092627,120.644168 89.9897353,124.072535 L89.9897353,124.072535 L89.9897353,124.072535 Z M122.317096,88.1374094 C124.436206,92.9847048 126.222591,97.6748134 127.640975,102.134382 C123.044067,103.186824 118.080852,104.034499 112.851513,104.664379 C114.497358,102.046867 116.122037,99.3460892 117.718495,96.5679929 C119.333579,93.7573271 120.867105,90.9424122 122.317096,88.1374094 L122.317096,88.1374094 L122.317096,88.1374094 Z M111.851645,93.1721958 C109.373283,97.4847733 106.828883,101.601646 104.245821,105.487697 C99.5411093,105.825293 94.6806184,105.99919 89.7267162,105.99919 C84.7928507,105.99919 79.9935983,105.845402 75.3721387,105.54434 C72.6849414,101.607311 70.0852291,97.4782597 67.6226703,93.2092974 L67.6232348,93.2092974 C65.1671669,88.9519477 62.9066703,84.6586287 60.8583949,80.389384 C62.9061058,76.110226 65.1606761,71.8120925 67.6026334,67.5623894 L67.602069,67.563239 C70.050517,63.3022073 72.6273705,59.1932641 75.289733,55.2808751 C80.0048867,54.9231694 84.8399795,54.736528 89.7264341,54.736528 L89.7267162,54.736528 C94.6351828,54.736528 99.4764839,54.9245854 104.190226,55.2854067 C106.811951,59.1691905 109.371307,63.2648223 111.829351,67.5264206 C114.315333,71.8358831 116.59897,76.1054108 118.664178,80.2928063 C116.60518,84.5521383 114.326621,88.8647165 111.851645,93.1721958 L111.851645,93.1721958 L111.851645,93.1721958 Z M125.823547,17.2677701 C131.132751,20.3404145 133.197394,32.7323842 129.86168,48.9820817 C129.648894,50.0189469 129.409299,51.075071 129.149101,52.1453561 C122.571366,50.6222037 115.428648,49.4887607 107.950384,48.7846779 C103.593918,42.5586719 99.0794151,36.8985376 94.5479798,31.9982802 C95.766278,30.8220712 96.9828823,29.7005234 98.1944065,28.6421336 C109.899321,18.4193391 120.839166,14.3831833 125.823547,17.2677701 L125.823547,17.2677701 L125.823547,17.2677701 Z" id="Shape" fill="#FFFFFF"></path>
                    <path d="M89.7265749,65.3592845 C97.7345686,65.3592845 104.226575,71.8510019 104.226575,79.8592845 C104.226575,87.8672769 97.7345686,94.3592845 89.7265749,94.3592845 C81.718582,94.3592845 75.2265749,87.8672769 75.2265749,79.8592845 C75.2265749,71.8510019 81.718582,65.3592845 89.7265749,65.3592845" id="Path" fill="#53C1DE"></path>
                </g>
            </g>
        </g>
    </g>
</svg>